<svg width="312" height="180" viewBox="0 0 312 180" fill="none" xmlns="http://www.w3.org/2000/svg">
<rect width="312" height="180" fill="#161D2F"/>
<path d="M156 116.667C170.727 116.667 182.667 104.728 182.667 90C182.667 75.2724 170.727 63.3334 156 63.3334C141.272 63.3334 129.333 75.2724 129.333 90C129.333 104.728 141.272 116.667 156 116.667Z" fill="#5A698F"/>
<path d="M146.393 104.524C147.051 105.412 148.304 105.598 149.191 104.94C151.133 103.5 153.478 102.667 156 102.667C158.522 102.667 160.867 103.5 162.809 104.94C163.697 105.598 164.949 105.412 165.607 104.524C166.265 103.637 166.078 102.384 165.191 101.727C162.598 99.8045 159.427 98.6666 156 98.6666C152.573 98.6666 149.402 99.8045 146.809 101.727C145.922 102.384 145.736 103.637 146.393 104.524Z" fill="#161D2F"/>
<path d="M164 90C165.473 90 166.667 88.2091 166.667 86C166.667 83.7909 165.473 82 164 82C162.527 82 161.333 83.7909 161.333 86C161.333 88.2091 162.527 90 164 90Z" fill="#161D2F"/>
<path d="M148 90C149.473 90 150.667 88.2091 150.667 86C150.667 83.7909 149.473 82 148 82C146.527 82 145.333 83.7909 145.333 86C145.333 88.2091 146.527 90 148 90Z" fill="#161D2F"/>
</svg>
